<?xml version="1.0" encoding="utf-8"?>
<svg version="1.1" id="Ebene_1" xmlns="http://www.w3.org/2000/svg" xmlns:xlink="http://www.w3.org/1999/xlink" x="0px" y="0px"
	 viewBox="0 0 261.8 72.5" style="enable-background:new 0 0 261.8 72.5;" xml:space="preserve">
<style type="text/css">
	.st0{fill:none;}
	.st1{fill:#F8C05A;}
	.st2{fill:#FFFFFF;}
	.st3{fill:#706F6F;}
</style>
<g>
	<polygon class="st3" points="58.3,35.2 58.3,34.9 58.3,34.2 58.3,33.9 258.6,33.9 258.6,35.2 	"/>
	<path class="st3" d="M21.2,68.1h-4.9c-0.9-1.2-1.7-2.5-2.4-3.8l-5.1,2.5l-1.9-3.9l5.2-2.5c-0.5-1.3-1-2.6-1.3-3.9l-5.6,1.3l-1-4.3
		l5.7-1.3c-0.2-1.3-0.4-2.7-0.4-4.1l-5.8,0l0-4.4l5.8,0c0.1-1.4,0.3-2.7,0.5-4.1l-5.7-1.3l1-4.3l5.7,1.3c0.4-1.3,0.8-2.6,1.4-3.9
		L6.9,29l1.9-3.9l5.3,2.6c0.7-1.2,1.4-2.3,2.2-3.4l-4.6-3.7l2.7-3.4l4.6,3.7c0.9-1,1.9-2,2.9-2.9l-3.7-4.6l3.4-2.7l3.7,4.7
		c1.1-0.8,2.3-1.5,3.5-2.2l-2.6-5.3l3.9-1.9l2.6,5.3c1.3-0.5,2.5-1,3.9-1.3L35.3,4l4.3-1l1.3,5.8c1.3-0.2,2.7-0.4,4.1-0.5V2.5h4.4
		v5.9c1.4,0.1,2.7,0.2,4,0.4l1.3-5.7l4.3,1l-1.3,5.7c1.3,0.4,2.6,0.8,3.9,1.3L64,5.9l3.9,1.9L65.4,13c1.2,0.7,2.4,1.4,3.6,2.3
		l-0.8,4.4c-5.8-4.6-13.1-7.4-21.1-7.4c-18.7,0-33.9,15.2-33.9,33.9C13.2,54.6,16.2,62.2,21.2,68.1"/>
	<polygon class="st3" points="73,30.1 78.8,30.1 78.4,32.2 70.3,32.2 72.4,19.8 74.8,19.8 	"/>
	<polygon class="st3" points="83,25 88.8,25 88.5,26.7 82.7,26.7 82.1,30.2 88.3,30.2 87.9,32.2 79.4,32.2 81.6,19.8 90.1,19.8
		89.7,21.7 83.6,21.7 	"/>
	<path class="st3" d="M91.9,19.8H98c1.4,0,2.4,0.2,3,0.7c1,0.8,1.3,2.1,0.8,4.5c-0.1,0.5-0.3,1.5-0.4,2.1c-0.3,1.4-0.5,2.2-0.8,2.8
		c-0.9,1.7-2.3,2.4-4.7,2.4h-6.2L91.9,19.8z M95.8,30.1c1.1,0,1.8-0.2,2.3-0.7c0.5-0.6,0.8-1.3,1.1-3.4c0.4-2.2,0.4-2.9,0.1-3.5
		c-0.3-0.5-0.8-0.7-1.9-0.7h-3.5l-1.5,8.3H95.8z"/>
	<polygon class="st3" points="105.6,25 111.4,25 111.1,26.7 105.3,26.7 104.7,30.2 110.9,30.2 110.5,32.2 102,32.2 104.2,19.8
		112.6,19.8 112.3,21.7 106.2,21.7 	"/>
	<path class="st3" d="M114.5,19.8h6.1c3,0,3.9,0.9,3.4,3.7c-0.4,2.5-1,3.1-2.9,3.5l0,0.1c1.4,0.1,2,0.9,1.7,2.4l-0.5,2.7h-2.4
		l0.4-2.2c0.1-0.8,0.1-1.2-0.2-1.5c-0.3-0.3-0.6-0.4-1.3-0.4h-3.4l-0.7,4.1h-2.4L114.5,19.8z M119.1,26c0.8,0,1.3-0.1,1.6-0.4
		c0.4-0.3,0.6-0.7,0.8-1.7c0.3-1.7,0.1-2.1-1.5-2.1h-3.5l-0.7,4.2H119.1z"/>
	<polygon class="st3" points="127.1,30.1 132.8,30.1 132.5,32.2 124.3,32.2 126.5,19.8 128.9,19.8 	"/>
	<polygon class="st3" points="137.1,25 142.9,25 142.6,26.7 136.8,26.7 136.1,30.2 142.3,30.2 142,32.2 133.4,32.2 135.6,19.8
		144.1,19.8 143.7,21.7 137.6,21.7 	"/>
	<polygon class="st3" points="68.2,68 62.6,68 65,54.4 45.7,54.4 43.3,68 37.7,68 43.1,37.4 48.7,37.4 46.4,50.4 65.7,50.4 68,37.4
		73.6,37.4 	"/>
	<path class="st3" d="M98.2,61.3l-0.1,0.8c-0.8,4.5-4,6.2-12.2,6.2c-5.4,0-8.1-0.7-9.5-2.4c-1.3-1.6-1.4-4-0.5-8.9
		c1.5-8.5,4.3-10.7,13.6-10.7c6.8,0,9.3,1.1,10,4.7c0.2,1.1,0.1,3-0.3,5.4L98.8,58h-18l-0.1,0.6c-0.9,5.2,0,6.3,5.5,6.3
		c5.5,0,6.4-0.5,6.9-3.7H98.2z M94.2,55.2c0.2-1.6,0.2-1.1,0.2-1.5c0.5-3.5-0.4-4.2-5.7-4.2c-5.3,0-6.5,0.9-7.4,5.7H94.2z"/>
	<path class="st3" d="M111.7,46.5l-0.9,2.8l0.1,0c2.1-2.3,4.2-3.2,7.7-3.2c2.3,0,4.1,0.6,5,1.5c1,1.1,1.2,2.4,0.7,5.2
		c0,0.1-0.1,0.8-0.3,1.4h-4.8c0.2-0.6,0.2-1.1,0.3-1.3c0.4-2.5-0.3-3.4-3.1-3.4c-2.4,0-4.3,0.8-5.2,2.2c-0.5,0.7-0.8,1.7-1.1,3.5
		L107.9,68h-5.1l3.8-21.5H111.7z"/>
	<path class="st3" d="M134.1,46.5l-0.7,3.3l0.1,0c1.9-2.5,4.4-3.6,8.7-3.6c4.5,0,6.9,1.3,7.2,3.8h0.1c2-2.7,4.7-3.8,9.2-3.8
		c3.9,0,6.4,1,7.4,2.8c0.5,1.1,0.6,2.5,0.2,4.8L163.8,68h-5.1l2.4-13.7c0.6-3.6-0.3-4.5-4.3-4.5c-3.1,0-5.4,0.8-6.4,2.3
		c-0.5,0.7-0.9,1.8-1.2,3.5L147,68h-5.1l2.4-13.6l0.1-0.3c0.3-2.2,0.3-2.4,0-2.9c-0.5-0.9-1.9-1.4-4.4-1.4c-4.6,0-6.8,1.7-7.5,5.9
		L130.3,68h-5.1l3.8-21.5H134.1z"/>
	<path class="st3" d="M194.1,61.3l-0.1,0.8c-0.8,4.5-4,6.2-12.2,6.2c-5.4,0-8.1-0.7-9.5-2.4c-1.3-1.6-1.4-4-0.5-8.9
		c1.5-8.5,4.3-10.7,13.6-10.7c6.8,0,9.3,1.1,10,4.7c0.2,1.1,0.1,3-0.4,5.4l-0.3,1.7h-18l-0.1,0.6c-0.9,5.2,0,6.3,5.5,6.3
		c5.5,0,6.4-0.5,6.9-3.7H194.1z M190.1,55.2c0.2-1.6,0.2-1.1,0.2-1.5c0.5-3.5-0.4-4.2-5.7-4.2c-5.3,0-6.5,0.9-7.4,5.7H190.1z"/>
	<path class="st3" d="M218,49.9h-9.9L206,61.7c-0.5,2.6,0,3.2,2.6,3.2c2.6,0,3.4-0.8,4-3.9c0-0.2,0.1-0.6,0.1-1h4.4
		c0,0.6-0.2,1.3-0.2,1.5c-0.9,4.9-3.3,6.8-9.1,6.8c-4.5,0-6.5-0.8-7.2-2.8c-0.2-0.8-0.2-1.5,0.1-3.3l2.2-12.3h-3.5l0.6-3.3h3.5
		l0.9-5h5.1l-0.9,5h9.9L218,49.9z"/>
	<path class="st3" d="M224.2,68h-5.1l3.8-21.5h5.1L224.2,68z M228.9,41.4h-5.1l0.7-4h5.1L228.9,41.4z"/>
	<path class="st3" d="M254,60l-0.2,1.2c-0.4,2.5-1.6,4.4-3.3,5.5c-1.9,1.1-4.3,1.6-9,1.6c-9.5,0-11.4-2.1-9.8-11.1
		c0.8-4.3,1.6-6.4,3.2-8.1c2-2,5-2.8,10.3-2.8c6,0,8.9,1.1,9.6,3.5c0.3,1,0.4,2.1,0,4.1h-5c0.7-3.4-0.3-4.2-5.3-4.2
		c-5.5,0-6.4,1-7.6,7.7c-0.7,3.7-0.5,5.8,0.5,6.7c0.7,0.6,2.2,0.8,5.1,0.8c4.9,0,5.9-0.7,6.6-4.9H254z"/>
</g>
</svg>
